<?xml version="1.0" standalone="no"?>
<!DOCTYPE svg PUBLIC "-//W3C//DTD SVG 20010904//EN"
 "http://www.w3.org/TR/2001/REC-SVG-20010904/DTD/svg10.dtd">
<svg version="1.0" xmlns="http://www.w3.org/2000/svg"
 width="512.000000pt" height="512.000000pt" viewBox="0 0 512.000000 512.000000"
 preserveAspectRatio="xMidYMid meet">
<metadata>
Created by potrace 1.14, written by Peter Selinger 2001-2017
</metadata>
<g transform="translate(0.000000,512.000000) scale(0.100000,-0.100000)"
fill="#000000" stroke="none">
<path d="M2939 5106 c-2 -2 -60 -8 -129 -11 -69 -4 -127 -8 -130 -10 -3 -2
-41 -6 -85 -10 -44 -4 -84 -10 -89 -13 -5 -2 -29 -6 -55 -8 -25 -1 -62 -6 -81
-10 -19 -4 -42 -8 -50 -9 -39 -7 -97 -17 -120 -21 -14 -3 -36 -7 -50 -9 -63
-10 -77 -13 -115 -23 -22 -5 -47 -10 -55 -11 -25 -1 -54 -8 -72 -15 -9 -4 -21
-5 -27 -2 -5 4 -12 2 -16 -4 -4 -6 -11 -8 -16 -4 -5 3 -15 1 -22 -4 -7 -5 -30
-12 -52 -15 -22 -2 -47 -7 -55 -11 -8 -3 -26 -8 -40 -10 -58 -11 -345 -90
-464 -127 -187 -59 -472 -173 -496 -199 -3 -3 -18 -12 -35 -20 -16 -7 -45 -25
-62 -38 -18 -12 -33 -21 -33 -18 0 3 -8 -1 -17 -8 -10 -8 -45 -36 -78 -62 -33
-26 -82 -68 -108 -93 -85 -80 -203 -277 -209 -348 -1 -7 -4 -13 -8 -13 -3 0
-6 -8 -7 -17 -3 -30 -10 -68 -13 -68 -2 0 -5 -18 -15 -110 -13 -105 -6 -462
11 -630 2 -27 7 -79 9 -115 3 -36 7 -94 10 -130 23 -313 23 -584 0 -795 -3
-22 -7 -60 -10 -85 -7 -64 -14 -129 -20 -170 -3 -19 -7 -57 -9 -85 -2 -27 -5
-50 -6 -50 -1 0 -3 -13 -5 -30 -1 -16 -6 -55 -10 -85 -25 -196 -29 -253 -28
-435 0 -163 5 -244 17 -292 3 -13 9 -33 12 -45 8 -34 10 -41 18 -60 4 -9 8
-22 10 -30 1 -7 11 -32 23 -55 12 -22 19 -44 16 -47 -4 -3 -1 -6 5 -6 7 0 12
-7 12 -15 0 -8 5 -15 10 -15 6 0 10 -4 10 -10 0 -30 170 -197 259 -255 83 -54
289 -154 371 -180 30 -10 55 -17 55 -15 0 2 10 -2 21 -8 12 -6 36 -14 54 -17
18 -3 38 -9 44 -12 6 -4 17 -8 26 -9 8 -1 26 -5 40 -9 14 -4 34 -8 45 -10 11
-1 40 -8 64 -15 23 -6 46 -9 49 -6 3 3 10 2 16 -3 6 -5 38 -12 71 -15 33 -4
74 -9 90 -11 89 -12 119 -15 210 -22 129 -10 555 -10 665 0 138 12 183 17 225
24 22 3 47 7 55 9 92 14 166 28 253 50 12 3 29 7 37 9 8 2 15 4 15 6 0 1 9 3
20 5 37 6 50 9 63 18 7 4 16 5 19 2 3 -3 12 -1 20 5 7 6 13 8 13 4 0 -4 6 -2
14 4 7 6 25 12 40 13 14 1 26 6 26 11 0 5 7 7 15 3 8 -3 15 -1 15 5 0 6 6 9
14 6 8 -3 16 -3 18 1 2 4 30 18 63 31 120 48 256 112 347 162 95 52 273 167
318 205 262 221 313 270 441 421 112 132 279 361 279 383 0 4 4 10 9 12 12 4
122 210 173 323 22 50 60 144 85 210 24 66 47 127 50 135 4 8 7 17 7 20 5 19
29 108 33 120 3 8 7 22 9 30 5 26 12 55 14 55 1 0 3 15 5 33 2 19 7 41 11 50
4 10 8 26 10 37 2 11 6 34 8 50 3 17 8 50 11 75 4 25 8 59 11 75 12 91 17 201
17 380 1 210 -5 293 -29 455 -2 19 -6 46 -7 60 -2 14 -7 31 -11 38 -4 7 -4 17
-1 22 3 6 3 16 -2 23 -4 6 -9 21 -10 32 -7 49 -9 61 -17 73 -4 6 -4 17 -1 22
3 6 2 10 -3 10 -5 0 -9 6 -10 13 0 6 -3 22 -6 35 -3 12 -8 30 -10 40 -6 24
-60 178 -84 237 -87 214 -205 414 -309 525 -18 19 -33 38 -33 42 0 14 -179
163 -255 213 -100 65 -217 127 -267 140 -5 2 -9 3 -10 5 -2 1 -10 3 -18 5 -8
2 -46 14 -85 28 -38 13 -72 24 -75 24 -3 1 -25 6 -49 13 -23 6 -46 9 -49 6 -3
-3 -10 -2 -16 3 -6 5 -37 12 -68 14 -32 3 -62 8 -67 12 -22 13 -610 33 -622
21z m-363 -390 c8 -8 14 -17 14 -19 0 -9 90 -94 95 -89 3 3 5 1 5 -5 0 -6 69
-81 153 -166 83 -85 258 -264 387 -397 129 -133 287 -295 350 -360 164 -167
182 -188 170 -195 -5 -3 -14 -3 -20 0 -5 3 -10 1 -10 -6 0 -10 -3 -10 -12 -1
-7 7 -17 8 -30 1 -10 -5 -18 -6 -18 -1 0 4 -28 6 -62 4 -70 -5 -82 -5 -118 1
-14 2 -33 -1 -42 -5 -10 -5 -18 -5 -18 0 0 8 -104 7 -128 -3 -7 -2 -10 0 -7 5
6 10 -48 5 -66 -6 -4 -2 -10 0 -13 4 -3 5 -18 7 -33 5 -33 -5 -38 -5 -80 0
-19 2 -33 -1 -33 -7 0 -6 -5 -4 -10 4 -9 13 -10 13 -10 0 0 -9 -3 -11 -8 -5
-4 6 -24 10 -44 10 -29 1 -39 -4 -47 -22 -7 -15 -7 -23 0 -23 6 0 6 -6 0 -18
-7 -13 -6 -23 1 -30 9 -9 9 -12 0 -12 -9 0 -10 -5 -2 -19 7 -14 7 -22 0 -26
-8 -5 -7 -11 1 -21 9 -11 9 -14 -1 -14 -10 0 -10 -3 0 -15 9 -11 9 -15 1 -15
-7 0 -9 -5 -5 -11 9 -15 9 -93 0 -107 -4 -7 -3 -12 2 -12 9 0 7 -64 -3 -80 -3
-6 -2 -10 4 -10 6 0 8 -6 5 -14 -3 -9 136 -155 385 -404 214 -215 391 -388
394 -386 2 2 9 -6 16 -19 6 -12 25 -31 41 -42 17 -11 30 -24 30 -28 0 -13 47
-56 54 -50 3 4 6 1 6 -6 0 -7 43 -54 95 -106 52 -51 95 -96 95 -99 0 -6 -510
-516 -516 -516 -2 0 -14 -11 -28 -25 -14 -14 -23 -25 -21 -25 2 0 -11 -15 -28
-33 -18 -18 -35 -31 -39 -29 -5 2 -8 -1 -8 -6 0 -11 -30 -43 -88 -94 -23 -21
-40 -38 -38 -38 2 0 -23 -27 -57 -59 -221 -213 -674 -670 -670 -675 4 -3 0 -6
-7 -6 -7 0 -52 40 -101 90 -48 49 -93 90 -100 90 -7 0 -10 3 -7 6 7 7 -592
609 -606 609 -6 0 -11 7 -11 15 -1 8 -6 14 -13 13 -7 -2 -11 1 -9 6 3 11 -275
287 -286 283 -5 -1 -6 2 -3 6 3 5 -5 18 -19 28 -13 10 -22 21 -19 26 3 4 1 8
-4 8 -12 0 -132 119 -132 131 0 5 -4 9 -8 9 -11 0 -182 171 -182 182 0 4 5 8
11 8 5 0 7 5 4 10 -3 6 2 10 11 10 10 0 15 2 12 5 -3 3 52 63 123 132 70 70
125 131 123 135 -3 5 -1 7 4 6 12 -4 138 122 134 134 -1 4 1 7 5 6 16 -4 51
26 46 39 -3 7 1 13 9 13 15 0 54 41 50 53 -1 4 3 7 9 7 6 0 137 127 292 282
l281 283 1 227 c0 195 -2 227 -15 230 -8 2 -207 3 -442 3 -278 0 -429 3 -431
10 -2 5 61 73 140 150 79 77 143 139 143 139 0 -1 38 35 83 80 46 44 120 116
165 159 45 43 82 82 82 87 0 6 6 10 14 10 8 0 18 9 21 21 4 11 9 18 12 16 2
-3 44 34 93 81 48 48 113 111 144 140 31 29 56 58 56 64 0 6 3 9 6 5 8 -8 104
88 104 104 0 7 3 10 6 7 3 -4 37 25 76 63 39 38 75 69 79 69 5 0 9 7 9 16 0 8
4 13 9 10 5 -3 11 1 15 9 7 19 14 19 32 1z"/>
<path d="M2483 2476 c-29 -30 -53 -53 -53 -51 0 1 -19 -16 -43 -39 -24 -23
-42 -44 -40 -48 2 -5 -1 -8 -6 -8 -6 0 -40 -28 -75 -62 -35 -35 -86 -85 -115
-111 -28 -26 -51 -52 -51 -57 0 -6 -4 -10 -8 -10 -8 0 -202 -184 -202 -192 0
-11 38 -48 50 -48 7 0 11 -2 8 -6 -4 -4 158 -174 167 -174 1 0 74 -72 162
-159 89 -88 164 -157 167 -154 3 4 6 1 6 -6 0 -14 45 -61 58 -61 5 0 13 -10
19 -21 11 -26 6 -30 221 179 70 68 146 141 170 163 23 22 42 45 42 51 0 6 2 9
5 6 6 -5 225 203 225 214 0 11 -584 593 -592 590 -5 -1 -8 2 -8 8 0 10 -40 50
-49 50 -3 0 -30 -24 -58 -54z"/>
</g>
</svg>
